<?xml version="1.0" encoding="UTF-8"?>
<svg version="1.1" xmlns="http://www.w3.org/2000/svg" width="256" height="256">
<path d="M0 0 C1.50292321 1.13589918 2.98136883 2.30470624 4.4375 3.5 C5.91863281 4.66402344 5.91863281 4.66402344 7.4296875 5.8515625 C17.04081603 13.92752739 23.46100382 26.72775093 24.69921875 39.11914062 C25.3833075 50.02655573 25.27538256 60.49003906 20.4375 70.5 C20.086875 71.27988281 19.73625 72.05976562 19.375 72.86328125 C15.97885566 79.69094643 10.79492668 85.14257332 5.4375 90.5 C5.34177015 92.27206596 5.25287961 94.04477257 5.19897461 95.81860352 C4.40903363 119.78014644 -4.91158019 140.72649675 -22.375 157.3125 C-31.31380296 164.93636168 -41.47587853 170.65896579 -52.5625 174.5 C-53.46226562 174.8196875 -54.36203125 175.139375 -55.2890625 175.46875 C-76.55893652 181.66051926 -100.52654188 178.23312194 -119.734375 167.765625 C-138.30148616 157.08906863 -151.54040757 140.76831225 -158.5625 120.5 C-158.8821875 119.60023438 -159.201875 118.70046875 -159.53125 117.7734375 C-165.72301926 96.50356348 -162.29562194 72.53595812 -151.828125 53.328125 C-140.5960617 33.79495712 -123.07399414 20.17939294 -101.51953125 13.56640625 C-95.93981254 12.11775878 -90.73707305 11.42417088 -84.99902344 11.34985352 C-78.21564131 11.37920341 -78.21564131 11.37920341 -72.0546875 8.875 C-70.10087589 6.83864688 -70.10087589 6.83864688 -68.37109375 4.62890625 C-52.61896225 -13.9130196 -18.5090682 -12.54991716 0 0 Z " fill="#D76B73" transform="translate(196.5625,43.5)"/>
<path d="M0 0 C1.50292321 1.13589918 2.98136883 2.30470624 4.4375 3.5 C5.42492187 4.27601562 6.41234375 5.05203125 7.4296875 5.8515625 C17.04081603 13.92752739 23.46100382 26.72775093 24.69921875 39.11914062 C25.3833075 50.02655573 25.27538256 60.49003906 20.4375 70.5 C20.086875 71.27988281 19.73625 72.05976562 19.375 72.86328125 C12.62040538 86.44283085 0.29462639 96.08215134 -13.89770508 100.90112305 C-28.92019736 105.49071723 -43.11556513 104.46857185 -57.1875 97.375 C-71.51448747 89.20039112 -81.43265049 76.85748202 -86.3125 61.07421875 C-89.73812289 46.53911051 -87.5373244 32.27543646 -80.375 19.25 C-71.67868525 5.34331329 -60.2414535 -3.75854408 -44.3203125 -8.11328125 C-28.58524348 -10.31975693 -13.39247206 -9.08065242 0 0 Z " fill="#7DFE00" transform="translate(196.5625,43.5)"/>
</svg>
